<svg width="1600" height="1000" viewBox="0 0 1600 1000" fill="none" xmlns="http://www.w3.org/2000/svg">
  <rect width="1600" height="1000" fill="#090607"/>
  <rect width="1600" height="1000" fill="url(#paint0_radial)"/>
  <g filter="url(#filter0_f)" opacity="0.68">
    <circle cx="328" cy="242" r="192" fill="#8F1D31"/>
    <circle cx="1304" cy="230" r="138" fill="#D7C097"/>
  </g>
  <ellipse cx="800" cy="620" rx="442" ry="254" fill="#161012" stroke="#D7C097" stroke-opacity="0.22"/>
  <ellipse cx="800" cy="620" rx="328" ry="182" fill="#F4ECE3" fill-opacity="0.06"/>
  <ellipse cx="800" cy="620" rx="250" ry="126" fill="#D7C097" fill-opacity="0.08"/>
  <path d="M646 618C646 564 714 520 798 520C882 520 950 564 950 618C950 672 882 716 798 716C714 716 646 672 646 618Z" fill="url(#paint1_linear)"/>
  <ellipse cx="742" cy="596" rx="92" ry="44" fill="#D7C097" fill-opacity="0.18"/>
  <ellipse cx="874" cy="652" rx="104" ry="54" fill="#F4ECE3" fill-opacity="0.14"/>
  <circle cx="706" cy="658" r="24" fill="#D7C097" fill-opacity="0.24"/>
  <circle cx="926" cy="566" r="18" fill="#D7C097" fill-opacity="0.26"/>
  <circle cx="820" cy="590" r="14" fill="#8F1D31" fill-opacity="0.48"/>
  <path d="M1188 290L1242 182" stroke="#D7C097" stroke-opacity="0.24" stroke-width="8" stroke-linecap="round"/>
  <path d="M1250 322L1324 174" stroke="#D7C097" stroke-opacity="0.16" stroke-width="8" stroke-linecap="round"/>
  <path d="M298 322L356 174" stroke="#D7C097" stroke-opacity="0.16" stroke-width="8" stroke-linecap="round"/>
  <path d="M362 290L416 182" stroke="#D7C097" stroke-opacity="0.24" stroke-width="8" stroke-linecap="round"/>
  <defs>
    <filter id="filter0_f" x="-64" y="-150" width="1506" height="772" filterUnits="userSpaceOnUse" color-interpolation-filters="sRGB">
      <feFlood flood-opacity="0" result="BackgroundImageFix"/>
      <feBlend mode="normal" in="SourceGraphic" in2="BackgroundImageFix" result="shape"/>
      <feGaussianBlur stdDeviation="100" result="effect1_foregroundBlur"/>
    </filter>
    <radialGradient id="paint0_radial" cx="0" cy="0" r="1" gradientUnits="userSpaceOnUse" gradientTransform="translate(800 96) rotate(90) scale(1000 1599.84)">
      <stop stop-color="#261014"/>
      <stop offset="1" stop-color="#090607"/>
    </radialGradient>
    <linearGradient id="paint1_linear" x1="798" y1="520" x2="798" y2="716" gradientUnits="userSpaceOnUse">
      <stop stop-color="#8F1D31" stop-opacity="0.48"/>
      <stop offset="1" stop-color="#D7C097" stop-opacity="0.16"/>
    </linearGradient>
  </defs>
</svg>

