<svg width="1200" height="1600" viewBox="0 0 1200 1600" fill="none" xmlns="http://www.w3.org/2000/svg">
  <rect width="1200" height="1600" fill="#090607"/>
  <rect width="1200" height="1600" fill="url(#paint0_radial)"/>
  <g filter="url(#filter0_f)" opacity="0.68">
    <circle cx="270" cy="258" r="170" fill="#8F1D31"/>
    <circle cx="916" cy="264" r="132" fill="#D7C097"/>
  </g>
  <rect x="176" y="312" width="848" height="798" rx="38" fill="#151012" stroke="#D7C097" stroke-opacity="0.14"/>
  <ellipse cx="600" cy="846" rx="286" ry="112" fill="#1A1012"/>
  <ellipse cx="600" cy="846" rx="216" ry="78" fill="#D7C097" fill-opacity="0.06"/>
  <circle cx="384" cy="588" r="88" fill="#D7C097" fill-opacity="0.08"/>
  <circle cx="600" cy="528" r="104" fill="#D7C097" fill-opacity="0.1"/>
  <circle cx="816" cy="604" r="96" fill="#D7C097" fill-opacity="0.08"/>
  <rect x="356" y="970" width="488" height="120" rx="30" fill="#1A1012" stroke="#D7C097" stroke-opacity="0.12"/>
  <rect x="396" y="1010" width="118" height="40" rx="20" fill="#F4ECE3" fill-opacity="0.08"/>
  <rect x="540" y="1010" width="266" height="40" rx="20" fill="#F4ECE3" fill-opacity="0.05"/>
  <path d="M270 1180H930" stroke="#D7C097" stroke-opacity="0.18" stroke-width="2" stroke-dasharray="8 12"/>
  <circle cx="356" cy="1180" r="48" fill="#D7C097" fill-opacity="0.08"/>
  <circle cx="600" cy="1180" r="48" fill="#D7C097" fill-opacity="0.08"/>
  <circle cx="844" cy="1180" r="48" fill="#D7C097" fill-opacity="0.08"/>
  <defs>
    <filter id="filter0_f" x="-100" y="-112" width="1384" height="746" filterUnits="userSpaceOnUse" color-interpolation-filters="sRGB">
      <feFlood flood-opacity="0" result="BackgroundImageFix"/>
      <feBlend mode="normal" in="SourceGraphic" in2="BackgroundImageFix" result="shape"/>
      <feGaussianBlur stdDeviation="100" result="effect1_foregroundBlur"/>
    </filter>
    <radialGradient id="paint0_radial" cx="0" cy="0" r="1" gradientUnits="userSpaceOnUse" gradientTransform="translate(600 112) rotate(90) scale(1600 1320.73)">
      <stop stop-color="#261014"/>
      <stop offset="1" stop-color="#090607"/>
    </radialGradient>
  </defs>
</svg>

