<svg width="1200" height="1200" viewBox="0 0 1200 1200" fill="none" xmlns="http://www.w3.org/2000/svg">
  <rect width="1200" height="1200" fill="#090607"/>
  <rect width="1200" height="1200" fill="url(#paint0_radial)"/>
  <g filter="url(#filter0_f)" opacity="0.72">
    <circle cx="932" cy="220" r="144" fill="#D7C097"/>
    <circle cx="290" cy="252" r="190" fill="#8F1D31"/>
  </g>
  <g opacity="0.95">
    <circle cx="600" cy="824" r="186" fill="#1A1012" stroke="#D7C097" stroke-opacity="0.2"/>
    <circle cx="600" cy="824" r="136" fill="#D7C097" fill-opacity="0.06"/>
  </g>
  <path d="M452 236H748L706 480C691 587 600 668 493 668H707C600 668 509 587 494 480L452 236Z" fill="#1A1012" stroke="#D7C097" stroke-opacity="0.16"/>
  <path d="M516 236H684L658 422C649 481 599 524 540 524H660C601 524 551 481 542 422L516 236Z" fill="#F4ECE3" fill-opacity="0.08"/>
  <rect x="582" y="668" width="36" height="164" rx="18" fill="#D7C097" fill-opacity="0.28"/>
  <path d="M520 832H680L724 968C730 987 716 1006 696 1006H504C484 1006 470 987 476 968L520 832Z" fill="url(#paint1_linear)"/>
  <circle cx="526" cy="402" r="10" fill="#D7C097" fill-opacity="0.52"/>
  <circle cx="566" cy="342" r="8" fill="#D7C097" fill-opacity="0.42"/>
  <circle cx="626" cy="444" r="14" fill="#D7C097" fill-opacity="0.48"/>
  <circle cx="674" cy="368" r="11" fill="#D7C097" fill-opacity="0.38"/>
  <defs>
    <filter id="filter0_f" x="-100" y="-138" width="1390" height="748" filterUnits="userSpaceOnUse" color-interpolation-filters="sRGB">
      <feFlood flood-opacity="0" result="BackgroundImageFix"/>
      <feBlend mode="normal" in="SourceGraphic" in2="BackgroundImageFix" result="shape"/>
      <feGaussianBlur stdDeviation="100" result="effect1_foregroundBlur"/>
    </filter>
    <radialGradient id="paint0_radial" cx="0" cy="0" r="1" gradientUnits="userSpaceOnUse" gradientTransform="translate(600 108) rotate(90) scale(1092 1049.7)">
      <stop stop-color="#261014"/>
      <stop offset="1" stop-color="#090607"/>
    </radialGradient>
    <linearGradient id="paint1_linear" x1="600" y1="832" x2="600" y2="1006" gradientUnits="userSpaceOnUse">
      <stop stop-color="#D7C097" stop-opacity="0.4"/>
      <stop offset="1" stop-color="#8F1D31" stop-opacity="0.24"/>
    </linearGradient>
  </defs>
</svg>

